# xmcd
#
# Track frame offsets:
#  150
#  16675
#  36075
#  56510
#  68911
#  71466
#  85222
#  97655
#  108679
#  114787
#  125924
#  142274
#  154149
#  162031
#  173795
#  190378
#  216616
#  223016
#  228441
#  244665
#
# Disc length: 3455 seconds
#
# Revision: 0
# Processed by: cddbd v1.5.1PL2 Copyright (c) Steve Scherf et al.
# Submitted via: Collectorz.com_Music_Collector 6.9
#
DISCID=1d0d7d14
DTITLE=Various Artist - The Grand Ole Opry 20 Live Country Hits
DYEAR=1998
DGENRE=country
TTITLE0=Willie Nelson - Georgia On My Mind
TTITLE1=Jerry Lee Lewis - (There Must Be) More To Love Than This
TTITLE2=Loretta Lynn - I Fall To Pieces, Walkin' After Midnight, Crazy
TTITLE3=Johnny Cash - Jackson
TTITLE4=Charley Pride - All Ihave To Offer You (Is Me)
TTITLE5=Don Williams - You're My Best Friend
TTITLE6=Tom T. Hall - That Song's Driving Me Crazy
TTITLE7=Tammy Wynette - D.I.V.O.R.C.E.
TTITLE8=Merle Haggard - The Fightin' Side Of Me
TTITLE9=Marty Robbins - Devil Woman
TTITLE10=Willie Nelson - Stardust
TTITLE11=Don Williams - Tulsa Time
TTITLE12=Jim Reeves - In A Mansion Stands My Love
TTITLE13=Johnny Cash - I Still Miss Someone
TTITLE14=Boxcar Willie - San Antonio Rose
TTITLE15=Brenda Lee - Jambalaya, Is It True, My Whole World Is Falling Down, End Of The World, All Alone Am I
TTITLE16=Marty Robbins - Big Iron
TTITLE17=Tammy Wynette - Singing My Songs
TTITLE18=Merle Haggard - Today, I Started Loving You Again
TTITLE19=Boxcar Willie - The Tennessee Waltz
EXTD=
EXTT0=
EXTT1=
EXTT2=
EXTT3=
EXTT4=
EXTT5=
EXTT6=
EXTT7=
EXTT8=
EXTT9=
EXTT10=
EXTT11=
EXTT12=
EXTT13=
EXTT14=
EXTT15=
EXTT16=
EXTT17=
EXTT18=
EXTT19=
PLAYORDER=
